<?xml version="1.0" encoding="utf-8"?>
<!-- Generator: Adobe Illustrator 22.1.0, SVG Export Plug-In . SVG Version: 6.00 Build 0)  -->
<svg version="1.1" id="Слой_1" xmlns="http://www.w3.org/2000/svg" xmlns:xlink="http://www.w3.org/1999/xlink" x="0px" y="0px"
	 width="133.4px" height="133.4px" viewBox="0 0 133.4 133.4" style="enable-background:new 0 0 133.4 133.4;" xml:space="preserve"
	>
<style type="text/css">
	.st0{fill:#FFFFFF;}
</style>
<g>
	<polygon class="st0" points="72.7,82.5 83.7,82.5 78.2,68.4 	"/>
	<path class="st0" d="M32.1,65h-2.7v25.9h3.6c3.6,0,6.2-0.4,7.8-1.2c1.6-0.8,2.9-2.2,3.9-4.1c1-1.9,1.5-4.3,1.5-7.2
		c0-4.4-1.2-7.7-3.7-10.1C40.5,66.1,37,65,32.1,65z"/>
	<path class="st0" d="M0,0v133.4h133.4V0H0z M78.6,37.9h1.2v-3.6h2.4v3.6h1.4V40h-1.4v7.6h-2.4V40h-1.2V37.9z M63.3,43.8l-0.8-0.4
		c-1.6-0.8-2.3-1.8-2.3-3c0-0.8,0.3-1.4,0.9-2c0.6-0.5,1.3-0.8,2.3-0.8c0.6,0,1.2,0.1,1.8,0.4c0.6,0.3,1,0.7,1.4,1.2L65,40.8
		c-0.6-0.6-1.2-0.9-1.7-0.9c-0.3,0-0.5,0.1-0.6,0.2c-0.2,0.1-0.2,0.3-0.2,0.4c0,0.1,0,0.2,0.1,0.4c0.1,0.1,0.3,0.3,0.7,0.4l0.9,0.4
		c0.9,0.5,1.6,0.9,1.9,1.4c0.3,0.5,0.5,1,0.5,1.7c0,0.9-0.3,1.6-0.9,2.1c-0.6,0.6-1.5,0.9-2.5,0.9c-1.4,0-2.5-0.5-3.4-1.6l1.5-1.6
		c0.3,0.3,0.6,0.6,1,0.8c0.4,0.2,0.7,0.3,1,0.3c0.3,0,0.6-0.1,0.8-0.2c0.2-0.2,0.3-0.3,0.3-0.5C64.4,44.5,64,44.2,63.3,43.8z
		 M38.6,37.9h2.4v4.6c0,0.9,0.1,1.5,0.2,1.9c0.1,0.4,0.3,0.6,0.6,0.8c0.3,0.2,0.6,0.3,1,0.3s0.7-0.1,1-0.3c0.3-0.2,0.5-0.5,0.6-0.8
		c0.1-0.3,0.2-0.9,0.2-1.8v-4.7h2.4V42c0,1.7-0.1,2.8-0.4,3.5c-0.3,0.8-0.8,1.3-1.4,1.7c-0.6,0.4-1.4,0.6-2.4,0.6
		c-1.1,0-1.9-0.2-2.6-0.7c-0.7-0.5-1.1-1.1-1.4-2c-0.2-0.6-0.3-1.6-0.3-3.2V37.9z M23,34.4c0.3-0.3,0.7-0.5,1.1-0.5
		c0.4,0,0.8,0.2,1.1,0.5c0.3,0.3,0.5,0.7,0.5,1.1c0,0.4-0.2,0.8-0.5,1.1c-0.3,0.3-0.7,0.5-1.1,0.5c-0.4,0-0.8-0.2-1.1-0.5
		c-0.3-0.3-0.5-0.7-0.5-1.1C22.5,35.1,22.7,34.7,23,34.4z M20.9,49.1c0.4,0.2,0.7,0.3,1,0.3c0.3,0,0.5-0.1,0.7-0.3
		c0.2-0.2,0.2-0.5,0.2-1V37.9h2.4v10c0,0.9-0.1,1.6-0.3,2.1c-0.2,0.5-0.5,0.8-0.9,1c-0.4,0.2-0.9,0.4-1.4,0.4
		c-0.5,0-1.1-0.1-1.8-0.4V49.1z M52.7,87.3c-1.1,2.7-2.5,4.9-4.4,6.6c-1.9,1.7-3.9,3-6,3.6c-2.2,0.7-5.9,1-11.2,1h-9.4V57.5H31
		c6,0,10.4,0.7,13.3,2.2c2.9,1.5,5.3,3.9,7.2,7.2c1.9,3.3,2.8,7.2,2.8,11.7C54.2,81.8,53.7,84.7,52.7,87.3z M89.8,98.5l-3.2-8.5
		H69.9l-3.3,8.5h-8.1l15.8-41.1h7.9l15.8,41.1H89.8z M110.4,98c-0.9,0.9-1.9,1.3-3.1,1.3c-1.2,0-2.2-0.4-3.1-1.3
		c-0.9-0.9-1.3-1.9-1.3-3.1c0-1.2,0.4-2.2,1.3-3.1c0.9-0.8,1.9-1.3,3.1-1.3c1.2,0,2.2,0.4,3.1,1.3c0.9,0.8,1.3,1.9,1.3,3.1
		C111.7,96.2,111.3,97.2,110.4,98z"/>
</g>
</svg>
